<?xml version="1.0" standalone="no"?>
<!DOCTYPE svg PUBLIC "-//W3C//DTD SVG 20010904//EN"
 "http://www.w3.org/TR/2001/REC-SVG-20010904/DTD/svg10.dtd">
<svg version="1.0" xmlns="http://www.w3.org/2000/svg"
 width="700.000000pt" height="700.000000pt" viewBox="0 0 700.000000 700.000000"
 preserveAspectRatio="xMidYMid meet">
<metadata>
Created by potrace 1.11, written by Peter Selinger 2001-2013
</metadata>
<g transform="translate(0.000000,700.000000) scale(0.100000,-0.100000)"
fill="#000000" stroke="none">
<path d="M453 6985 c-209 -45 -394 -233 -439 -444 -11 -56 -14 -527 -14 -3037
0 -2091 3 -2988 11 -3030 31 -172 161 -339 321 -413 45 -22 110 -44 142 -50
84 -15 5968 -15 6052 0 172 31 339 161 413 321 22 45 44 110 50 142 15 84 15
5968 0 6052 -6 32 -28 97 -50 143 -50 107 -159 220 -261 269 -136 66 93 62
-3183 61 -2471 0 -2991 -3 -3042 -14z m1977 -2070 l0 -675 495 0 495 0 0 675
0 675 520 0 520 0 0 -1910 0 -1910 -517 2 -518 3 -3 748 -2 747 -495 0 -495 0
-2 -747 -3 -748 -517 -3 -518 -2 0 1910 0 1910 520 0 520 0 0 -675z m2874
-2015 c108 -27 189 -74 268 -152 78 -79 140 -193 163 -303 70 -332 -139 -654
-467 -720 -96 -19 -145 -19 -245 0 -154 29 -313 138 -391 268 -195 324 -55
759 286 887 116 44 263 52 386 20z"/>
</g>
</svg>
