<?xml version="1.0" standalone="no"?>
<!DOCTYPE svg PUBLIC "-//W3C//DTD SVG 20010904//EN"
 "http://www.w3.org/TR/2001/REC-SVG-20010904/DTD/svg10.dtd">
<svg version="1.0" xmlns="http://www.w3.org/2000/svg"
 width="260.000000pt" height="260.000000pt" viewBox="0 0 260.000000 260.000000"
 preserveAspectRatio="xMidYMid meet">
<metadata>
Created by potrace 1.11, written by Peter Selinger 2001-2013
</metadata>
<g transform="translate(0.000000,260.000000) scale(0.100000,-0.100000)"
fill="#000000" stroke="none">
<path d="M1087 2356 c-91 -24 -153 -48 -197 -76 -147 -95 -222 -161 -281 -246
l-29 -43 0 -390 0 -391 69 0 68 0 7 72 c14 140 63 246 136 294 l40 27 0 78 0
79 400 0 400 0 0 -79 0 -79 34 -20 c44 -26 90 -89 110 -150 13 -39 35 -165 36
-209 0 -9 21 -13 70 -13 l70 0 0 391 0 390 -29 43 c-58 84 -143 158 -276 242
-157 98 -426 132 -628 80z"/>
</g>
</svg>
