<?xml version="1.0" standalone="no"?>
<!DOCTYPE svg PUBLIC "-//W3C//DTD SVG 20010904//EN"
 "http://www.w3.org/TR/2001/REC-SVG-20010904/DTD/svg10.dtd">
<svg version="1.0" xmlns="http://www.w3.org/2000/svg"
 width="280.000000pt" height="280.000000pt" viewBox="0 0 280.000000 280.000000"
 preserveAspectRatio="xMidYMid meet">
<metadata>
Created by potrace 1.11, written by Peter Selinger 2001-2013
</metadata>
<g transform="translate(0.000000,280.000000) scale(0.100000,-0.100000)"
fill="#000000" stroke="none">
<path d="M1250 2724 c-148 -18 -221 -38 -328 -90 -156 -75 -262 -193 -317
-351 -21 -60 -29 -96 -49 -238 -2 -16 -5 -90 -5 -162 l-1 -133 -27 0 c-62 -1
-96 -62 -96 -170 0 -116 50 -284 103 -344 23 -25 28 -41 27 -76 -4 -148 39
-254 146 -362 40 -40 83 -81 95 -91 41 -31 154 -99 223 -131 62 -31 64 -33 45
-47 -11 -9 -27 -37 -36 -64 l-16 -48 -80 -23 c-43 -13 -115 -30 -158 -39 -80
-15 -134 -40 -173 -81 l-23 -23 55 -26 c380 -179 798 -219 1210 -115 144 36
375 128 375 148 0 13 -41 48 -77 66 -17 8 -95 29 -174 46 -138 29 -169 41
-169 63 0 6 -7 31 -16 54 -12 31 -24 45 -42 50 -22 5 -18 9 38 35 82 37 242
144 299 200 116 114 160 202 168 341 5 81 8 94 37 132 47 61 91 198 100 315 7
87 -38 190 -83 190 -14 0 -16 21 -17 153 -3 291 -69 519 -186 639 -75 77 -262
155 -418 173 -25 3 -56 7 -70 10 -57 12 -262 11 -360 -1z"/>
</g>
</svg>
