<?xml version="1.0" standalone="no"?>
<!DOCTYPE svg PUBLIC "-//W3C//DTD SVG 20010904//EN"
 "http://www.w3.org/TR/2001/REC-SVG-20010904/DTD/svg10.dtd">
<svg version="1.0" xmlns="http://www.w3.org/2000/svg"
 width="700.000000pt" height="700.000000pt" viewBox="0 0 700.000000 700.000000"
 preserveAspectRatio="xMidYMid meet">
<metadata>
Created by potrace 1.11, written by Peter Selinger 2001-2013
</metadata>
<g transform="translate(0.000000,700.000000) scale(0.100000,-0.100000)"
fill="#000000" stroke="none">
<path d="M1847 5348 l1652 -1652 1650 1652 1650 1652 -3302 0 -3302 0 1652
-1652z"/>
<path d="M0 5348 l0 -1467 730 731 c402 402 730 733 730 736 0 3 -329 334
-730 735 l-730 731 0 -1466z"/>
<path d="M822 4321 l-822 -826 825 -825 825 -825 825 825 c453 454 825 829
825 833 0 12 -1636 1647 -1646 1646 -5 -1 -379 -373 -832 -828z"/>
<path d="M2741 2555 c-611 -612 -750 -755 -730 -756 31 -1 2982 -1 2991 0 6 1
-1497 1511 -1504 1511 -2 0 -342 -340 -757 -755z"/>
<path d="M0 1557 l0 -1557 1556 0 1555 0 -778 778 c-428 429 -1128 1129 -1555
1557 l-778 778 0 -1556z"/>
<path d="M1984 1521 c-3 -3 336 -346 753 -763 l758 -758 1656 0 1656 0 -762
763 -762 763 -1647 0 c-906 0 -1649 -2 -1652 -5z"/>
</g>
</svg>
